Coordinates
version=1
nRows=27
nColumns=12
inDegrees=yes

Units are S.I. units (second, meters, Newtons, ...)
Angles are in degrees

endheader
time	SC_y	SC_z	SC_x	AC_y	AC_z	AC_x	GH_y	GH_z	GH_yy	EL_x	PS_y
       0.0              -24.19          32.31          67.26          32.75         -12.07         -11.93         -138.8          51.13          154.2          52.41          155.9
 0.0004222              -24.19           32.3          67.26          32.75         -12.07         -11.93         -138.7          51.12          154.1          52.41          155.9
 0.0008445              -24.19           32.3          67.26          32.76         -12.07         -11.93         -138.7          51.11          154.1          52.42          155.9
  0.001267              -24.19          32.29          67.26          32.76         -12.07         -11.92         -138.7           51.1          154.1          52.43          155.9
  0.001689               -24.2          32.29          67.27          32.77         -12.07         -11.92         -138.7           51.1          154.1          52.44          155.9
  0.002111               -24.2          32.28          67.27          32.78         -12.07         -11.92         -138.6          51.09          154.1          52.44          155.9
  0.002533               -24.2          32.28          67.27          32.78         -12.07         -11.91         -138.6          51.07          154.0          52.45          155.9
  0.002956               -24.2          32.27          67.27          32.79         -12.07         -11.91         -138.6          51.06          154.0          52.46          155.9
  0.003378              -24.21          32.26          67.28           32.8         -12.07          -11.9         -138.5          51.05          154.0          52.47          155.9
    0.0038              -24.21          32.26          67.28          32.81         -12.08          -11.9         -138.5          51.04          154.0          52.48          155.8
  0.004222              -24.21          32.25          67.28          32.82         -12.08         -11.89         -138.4          51.02          153.9          52.49          155.8
  0.004645              -24.22          32.24          67.29          32.83         -12.08         -11.88         -138.4          51.01          153.9          52.51          155.8
  0.005067              -24.22          32.23          67.29          32.84         -12.08         -11.88         -138.3          50.99          153.9          52.52          155.8
  0.005489              -24.23          32.22           67.3          32.85         -12.08         -11.87         -138.3          50.97          153.8          52.53          155.8
  0.005911              -24.23          32.21           67.3          32.86         -12.08         -11.86         -138.2          50.96          153.8          52.55          155.8
  0.006334              -24.24           32.2           67.3          32.88         -12.09         -11.85         -138.2          50.93          153.7          52.56          155.8
  0.006756              -24.25          32.19          67.31          32.89         -12.09         -11.84         -138.1          50.91          153.7          52.58          155.7
  0.007178              -24.25          32.18          67.32          32.91         -12.09         -11.83         -138.0          50.89          153.6           52.6          155.7
    0.0076              -24.26          32.16          67.32          32.93         -12.09         -11.82         -137.9          50.86          153.6          52.62          155.7
  0.008023              -24.27          32.14          67.33          32.95          -12.1         -11.81         -137.9          50.83          153.5          52.65          155.7
  0.008445              -24.28          32.13          67.34          32.97          -12.1          -11.8         -137.8           50.8          153.4          52.67          155.7
  0.008867              -24.29          32.11          67.34          32.99          -12.1         -11.78         -137.6          50.76          153.4           52.7          155.6
  0.009289               -24.3          32.09          67.35          33.02         -12.11         -11.76         -137.5          50.72          153.3          52.73          155.6
  0.009712              -24.31          32.06          67.36          33.05         -12.11         -11.75         -137.4          50.68          153.2          52.77          155.6
   0.01013              -24.32          32.04          67.38          33.08         -12.12         -11.73         -137.2          50.63          153.1          52.81          155.5
   0.01056              -24.34          32.01          67.39          33.12         -12.12          -11.7         -137.1          50.58          152.9          52.85          155.5
   0.01098              -24.35          31.98           67.4          33.16         -12.13         -11.68         -136.9          50.52          152.8           52.9          155.4
